# xmcd
#
# Track frame offsets:
#	150
#	14909
#	28132
#	45771
#	58230
#	72940
#	89977
#	103229
#	118151
#	131142
#	146246
#	159826
#	172446
#	187698
#	200186
#
# Disc length: 2876 seconds
#
# Revision: 0
# Processed by: cddbd v1.5.2PL0 Copyright (c) Steve Scherf et al.
# Submitted via: audiograbber 1.83.01
#
DISCID=ef0b3a0f
DTITLE=Doug Jeffords - West of the Pecos
DYEAR=2010
DGENRE=Bluegrass
TTITLE0=Smoke Along the Track
TTITLE1=They'll Never Take Her Love From Me
TTITLE2=No Tellin' What a Love Song Will Do
TTITLE3=Write Me Sweetheart
TTITLE4=Bugler
TTITLE5=Snowin' on Raton
TTITLE6=Ricochet
TTITLE7=It's Better to Have Loved and Lost
TTITLE8=Spanish Johnny
TTITLE9=High Mountain Meadow
TTITLE10=Canadian Whiskey
TTITLE11=Heaven is my Home
TTITLE12=Southern Cowgirl
TTITLE13=Barroom Girls
TTITLE14=That Old Wheel
EXTD=
EXTT0=
EXTT1=
EXTT2=
EXTT3=
EXTT4=
EXTT5=
EXTT6=
EXTT7=
EXTT8=
EXTT9=
EXTT10=
EXTT11=
EXTT12=
EXTT13=
EXTT14=
PLAYORDER=
